<svg version="1.1" xmlns="http://www.w3.org/2000/svg" viewBox="0 0 604 982" width="604" height="982">
  <!-- svg-source:excalidraw -->
  
  <defs>
    <style>
      @font-face {
        font-family: "Virgil";
        src: url("https://excalidraw.com/Virgil.woff2");
      }
      @font-face {
        font-family: "Cascadia";
        src: url("https://excalidraw.com/Cascadia.woff2");
      }
    </style>
  </defs>
  <rect x="0" y="0" width="604" height="982" fill="#ffffff"></rect><g stroke-linecap="round" transform="translate(37 10) rotate(0 246 23)"><path d="M0.03 0.05 C125.76 -1.09, 250.46 -0.68, 492.29 0.81 M-0.33 0.23 C150.39 0.85, 300.9 1.17, 492.41 -0.4 M492.16 -1.6 C493.55 10.33, 491.04 19.1, 491.98 44.63 M492.78 -0.77 C492.5 15.58, 492.71 29.44, 492.28 46.9 M492.13 46.04 C380.27 44.71, 267.33 45.69, -0.24 45.72 M492.31 45.91 C322.54 45.05, 152.71 44.48, 0.02 45.62 M-1.12 47.55 C-0.97 36.56, -2.25 22.58, -0.76 1.59 M0.87 45.65 C-1.22 27.26, 0.14 9.56, 0.46 0.55" stroke="#000000" stroke-width="1" fill="none"></path></g><g transform="translate(90 19.5) rotate(0 205 12)"><text x="0" y="19" font-family="Cascadia, Segoe UI Emoji" font-size="20px" fill="#000000" text-anchor="start" style="white-space: pre;" direction="ltr">Router - with address and exchange </text></g><g stroke-linecap="round"><g transform="translate(278 63) rotate(0 1.2839637717091819 19.129902228340498)"><path d="M0.68 -0.91 C0.7 5.42, 0.49 32.71, 0.87 39.17 M-0.42 1.22 C-0.11 7.74, 2.47 31.32, 2.99 37.62" stroke="#000000" stroke-width="1" fill="none"></path></g><g transform="translate(278 63) rotate(0 1.2839637717091819 19.129902228340498)"><path d="M-6.68 18.62 C-0.36 28.12, 0.51 32.69, 1.36 39.46 M-5.35 19.89 C-2.38 24.81, -1.25 28.83, 2.2 36.85" stroke="#000000" stroke-width="1" fill="none"></path></g><g transform="translate(278 63) rotate(0 1.2839637717091819 19.129902228340498)"><path d="M6.31 17.37 C7.95 27.39, 4.15 32.41, 1.36 39.46 M7.63 18.63 C7.33 23.75, 5.18 28.09, 2.2 36.85" stroke="#000000" stroke-width="1" fill="none"></path></g></g><g stroke-linecap="round" transform="translate(44 104) rotate(0 240 43)"><path d="M-0.27 0.45 C134.24 -1.39, 269.09 -0.47, 480.38 -0.37 M0 0.35 C170.15 -1.16, 340.83 -0.97, 479.71 0.28 M479.53 -0.7 C480.24 24.51, 480.84 51.18, 482 84.69 M480.53 0.47 C479.55 29.95, 480.14 59.86, 479.64 86.05 M480.56 85.81 C333.67 87, 185.8 87.39, -0.19 86.15 M480.03 86.35 C351.41 87.8, 222.7 87.84, 0.02 86.18 M-0.9 84.3 C0.72 51.94, 2.33 19.67, 0.44 -0.76 M-0.33 85.79 C-1.15 67.34, -0.96 48.5, 0.74 0.55" stroke="#000000" stroke-width="1" fill="none"></path></g><g transform="translate(51 127.5) rotate(0 234.5 24)"><text x="0" y="19" font-family="Cascadia, Segoe UI Emoji" font-size="20px" fill="#000000" text-anchor="start" style="white-space: pre;" direction="ltr">Gives all the transactions of that token</text><text x="0" y="43" font-family="Cascadia, Segoe UI Emoji" font-size="20px" fill="#000000" text-anchor="start" style="white-space: pre;" direction="ltr">as array</text></g><g stroke-linecap="round"><g transform="translate(275.36506129263523 197.00000000000006) rotate(0 0.6225912568900753 17.508857795223605)"><path d="M-0.5 -0.99 C-0.31 5.2, 1.38 29.98, 1.74 36.01 M1.44 1.1 C1.51 7.03, 1.36 28.28, 1.37 34.15" stroke="#000000" stroke-width="1" fill="none"></path></g><g transform="translate(275.36506129263523 197.00000000000006) rotate(0 0.6225912568900753 17.508857795223605)"><path d="M-6.12 19.05 C-1.95 24.87, -1.07 29.52, 0.4 35.69 M-4.24 17.25 C-3.07 21.5, -2.65 25.71, 0.78 34.38" stroke="#000000" stroke-width="1" fill="none"></path></g><g transform="translate(275.36506129263523 197.00000000000006) rotate(0 0.6225912568900753 17.508857795223605)"><path d="M6.03 19.09 C5.93 24.84, 2.54 29.48, 0.4 35.69 M7.9 17.29 C6.05 21.44, 3.46 25.64, 0.78 34.38" stroke="#000000" stroke-width="1" fill="none"></path></g></g><g stroke-linecap="round" transform="translate(16 234) rotate(0 272.5 60.49999999999997)"><path d="M0.4 0.62 C125.41 -1.82, 249.68 -2.09, 544.62 0.52 M-0.03 -0.35 C213.44 -1.28, 426.23 -1, 545.11 -0.18 M545.67 -1.78 C544.67 45.65, 543.88 95.89, 544.41 121.41 M544.15 -0.5 C543.4 38.52, 544.7 79.14, 544.44 121.41 M544.4 121.63 C400.76 123.38, 258.09 123.78, -0.42 120.47 M545.07 120.79 C405.53 121.1, 265.47 121.07, 0.07 120.71 M0.88 119.69 C-1.05 81.75, 0.81 40.92, 1.43 0.79 M-0.13 120.99 C0.47 85.74, 0.33 49.94, -0.05 0.36" stroke="#000000" stroke-width="1" fill="none"></path></g><g transform="translate(45 240.5) rotate(0 252 24)"><text x="0" y="19" font-family="Cascadia, Segoe UI Emoji" font-size="20px" fill="#000000" text-anchor="start" style="white-space: pre;" direction="ltr">Using setInterval and default limit we are </text><text x="0" y="43" font-family="Cascadia, Segoe UI Emoji" font-size="20px" fill="#000000" text-anchor="start" style="white-space: pre;" direction="ltr">managing how much iteration we have to do</text></g><g transform="translate(29 296.5307167235495) rotate(0 256 31.5)"><text x="0" y="17" font-family="Cascadia, Segoe UI Emoji" font-size="17.47440273037542px" fill="#000000" text-anchor="start" style="white-space: pre;" direction="ltr">Limit will define how many elements to be iterated</text><text x="0" y="38" font-family="Cascadia, Segoe UI Emoji" font-size="17.47440273037542px" fill="#000000" text-anchor="start" style="white-space: pre;" direction="ltr">default = 20</text><text x="0" y="59" font-family="Cascadia, Segoe UI Emoji" font-size="17.47440273037542px" fill="#000000" text-anchor="start" style="white-space: pre;" direction="ltr"></text></g><g stroke-linecap="round"><g transform="translate(272.85361883771793 356) rotate(0 -0.1346107279183002 31.282987079769356)"><path d="M-0.98 -1.13 C-1.01 9.39, 0.02 52.86, 0.03 63.7 M0.71 0.89 C0.59 11.02, 0 51.75, -0.38 61.94" stroke="#000000" stroke-width="1" fill="none"></path></g><g transform="translate(272.85361883771793 356) rotate(0 -0.1346107279183002 31.282987079769356)"><path d="M-11.85 35.21 C-5.61 42.85, -2.19 49.75, 1.56 61.49 M-10.35 32.53 C-7.01 42.41, -3.31 51.6, -0.27 61.28" stroke="#000000" stroke-width="1" fill="none"></path></g><g transform="translate(272.85361883771793 356) rotate(0 -0.1346107279183002 31.282987079769356)"><path d="M8.67 35.71 C8.36 43.02, 5.24 49.76, 1.56 61.49 M10.17 33.03 C6.85 42.62, 3.89 51.65, -0.27 61.28" stroke="#000000" stroke-width="1" fill="none"></path></g></g><g stroke-linecap="round" transform="translate(10 424) rotate(0 288.5 56)"><path d="M-0.49 0.04 C212.38 0.58, 423.46 1.51, 576.23 0.59 M0.1 0.09 C174.47 -0.72, 348.52 -1.29, 577.25 0.32 M578.52 -0.93 C577.23 24.98, 576.22 49.33, 577.11 113.54 M576.83 0.57 C578.37 25.94, 578.51 52, 577.5 112.2 M576.51 112.08 C413.45 110.53, 249.37 110.9, -0.21 111.98 M577.24 112.11 C347.62 110.28, 117.13 110.58, 0.09 111.67 M-0.3 110.61 C-0.72 66.27, -2.23 25.48, -1.92 -0.99 M-0.85 111.37 C-0.21 79.96, 1.3 47.01, -0.78 -0.46" stroke="#000000" stroke-width="1" fill="none"></path></g><g transform="translate(19 434.33972125435537) rotate(0 281.5 47.080139372822316)"><text x="0" y="18.540069686411144" font-family="Cascadia, Segoe UI Emoji" font-size="19.616724738675952px" fill="#000000" text-anchor="start" style="white-space: pre;" direction="ltr">Each iteration will take transaction hash of </text><text x="0" y="42.08013937282229" font-family="Cascadia, Segoe UI Emoji" font-size="19.616724738675952px" fill="#000000" text-anchor="start" style="white-space: pre;" direction="ltr">each transaction , fetch logs of that transaction</text><text x="0" y="65.62020905923343" font-family="Cascadia, Segoe UI Emoji" font-size="19.616724738675952px" fill="#000000" text-anchor="start" style="white-space: pre;" direction="ltr">and if according to condition then push it to an </text><text x="0" y="89.16027874564458" font-family="Cascadia, Segoe UI Emoji" font-size="19.616724738675952px" fill="#000000" text-anchor="start" style="white-space: pre;" direction="ltr">array  </text></g><g stroke-linecap="round"><g transform="translate(287.26547171656216 537) rotate(0 1.0280548884923633 26.243357201688923)"><path d="M-0.34 1.02 C0.19 9.82, 2.15 43.4, 2.39 51.98 M1.69 0.51 C2.22 9.02, 2.24 41.75, 2 50.11" stroke="#000000" stroke-width="1" fill="none"></path></g><g transform="translate(287.26547171656216 537) rotate(0 1.0280548884923633 26.243357201688923)"><path d="M-4.85 27.59 C-3.89 31.22, -0.99 36.46, 1.44 48.79 M-6.14 25.51 C-4.54 32.95, -1.94 41.13, 2.93 50.75" stroke="#000000" stroke-width="1" fill="none"></path></g><g transform="translate(287.26547171656216 537) rotate(0 1.0280548884923633 26.243357201688923)"><path d="M12.77 27.78 C9.59 31.32, 8.34 36.51, 1.44 48.79 M11.48 25.7 C7.57 33.04, 4.67 41.16, 2.93 50.75" stroke="#000000" stroke-width="1" fill="none"></path></g></g><g stroke-linecap="round" transform="translate(12 591) rotate(0 286.5 42)"><path d="M0.55 -0.63 C121.01 1.04, 243.21 0.49, 573.52 0.57 M0.29 0.2 C216.48 -0.29, 433.08 -0.16, 572.65 -0.14 M573.18 0.38 C575.16 28.41, 572.26 57.5, 573.07 85.77 M573.81 -0.58 C573.03 34.08, 573.44 66.77, 572.63 83.73 M573.5 83.33 C447.43 85.74, 322.17 84.83, -0.41 84.77 M573.39 83.64 C359.67 82.66, 146.5 82.72, -0.14 83.67 M0.79 83.48 C-0.23 54.1, 0.77 26.75, 0.91 0.42 M-0.65 84.99 C1.06 61, 0.9 40.35, 0.13 0.13" stroke="#000000" stroke-width="1" fill="none"></path></g><g transform="translate(43 608.5) rotate(0 263.5 36)"><text x="0" y="19" font-family="Cascadia, Segoe UI Emoji" font-size="20px" fill="#000000" text-anchor="start" style="white-space: pre;" direction="ltr">interval only executes according to limit and</text><text x="0" y="43" font-family="Cascadia, Segoe UI Emoji" font-size="20px" fill="#000000" text-anchor="start" style="white-space: pre;" direction="ltr">then it will be cleared </text><text x="0" y="67" font-family="Cascadia, Segoe UI Emoji" font-size="20px" fill="#000000" text-anchor="start" style="white-space: pre;" direction="ltr"> </text></g><g stroke-linecap="round"><g transform="translate(301.4818500543115 679) rotate(0 0.6287741533589042 21.300984244593394)"><path d="M-0.02 -0.05 C0.14 7.06, 0.26 36.59, 0.6 43.73 M-1.49 -1.12 C-0.94 6.16, 2.26 34.47, 2.75 41.98" stroke="#000000" stroke-width="1" fill="none"></path></g><g transform="translate(301.4818500543115 679) rotate(0 0.6287741533589042 21.300984244593394)"><path d="M-6.5 20.74 C-2.56 28.38, -1.65 32.27, 1.63 42.12 M-6.9 22.02 C-4.8 27.53, -2.84 30.05, 3.03 41.45" stroke="#000000" stroke-width="1" fill="none"></path></g><g transform="translate(301.4818500543115 679) rotate(0 0.6287741533589042 21.300984244593394)"><path d="M8.15 19.4 C8.15 27.4, 5.09 31.65, 1.63 42.12 M7.75 20.68 C6.79 26.34, 5.69 29.14, 3.03 41.45" stroke="#000000" stroke-width="1" fill="none"></path></g></g><g stroke-linecap="round" transform="translate(18 723) rotate(0 286.5 47)"><path d="M-0.26 -0.09 C170.05 0.52, 339.76 0.38, 573.12 -0.37 M-0.16 -0.32 C132.58 2.11, 265.09 2.12, 572.84 0.21 M572.45 0.71 C573.09 25.41, 571.16 49.86, 572.68 93.93 M573.12 -0.65 C571.23 27.17, 572.76 54.88, 573.92 94.14 M572.28 93.35 C361.83 93.97, 150.94 94.29, -0.57 93.59 M572.69 94.22 C372.19 95.06, 171.41 94.96, -0.32 93.66 M1.77 95.74 C-1.99 67.46, 0.74 41.94, -1.98 0.24 M0.94 93.46 C-0.2 74.12, 0.17 54.08, -0.83 -0.95" stroke="#000000" stroke-width="1" fill="none"></path></g><g transform="translate(26 732.5) rotate(0 275.5 36)"><text x="0" y="19" font-family="Cascadia, Segoe UI Emoji" font-size="20px" fill="#000000" text-anchor="start" style="white-space: pre;" direction="ltr">After interval clearing we are again iterating </text><text x="0" y="43" font-family="Cascadia, Segoe UI Emoji" font-size="20px" fill="#000000" text-anchor="start" style="white-space: pre;" direction="ltr">over the logs array and decoding the logs data </text><text x="0" y="67" font-family="Cascadia, Segoe UI Emoji" font-size="20px" fill="#000000" text-anchor="start" style="white-space: pre;" direction="ltr">and pushing it to a new array (decodedLogData)</text></g><g stroke-linecap="round"><g transform="translate(286.1761007486998 820) rotate(0 -0.29327371653994305 22.032890472942995)"><path d="M-0.73 -0.46 C-1.09 7.04, -1.03 37.29, -1.34 44.87 M1.09 -1.75 C0.59 5.87, -0.92 37.89, -1.68 45.82" stroke="#000000" stroke-width="1" fill="none"></path></g><g transform="translate(286.1761007486998 820) rotate(0 -0.29327371653994305 22.032890472942995)"><path d="M-8.85 25.64 C-7.6 31.78, -5 40.88, -1.64 43.83 M-7.63 23.49 C-5.5 33.12, -3.58 40.87, -1.12 45.4" stroke="#000000" stroke-width="1" fill="none"></path></g><g transform="translate(286.1761007486998 820) rotate(0 -0.29327371653994305 22.032890472942995)"><path d="M6.87 26.7 C2.28 32.36, -0.95 41.05, -1.64 43.83 M8.09 24.56 C4.16 33.8, 0.02 41.14, -1.12 45.4" stroke="#000000" stroke-width="1" fill="none"></path></g></g><g stroke-linecap="round" transform="translate(18 867) rotate(0 288 52.5)"><path d="M0.68 -0.7 C187.65 0.28, 375.08 -0.25, 576.58 -0.41 M0.4 -0.27 C229.36 1.47, 458.82 1.44, 576.2 -0.27 M574.88 0.68 C577.67 24.82, 578.64 48.55, 574.32 105.15 M576.46 -0.88 C575.24 25.3, 574.7 51.82, 575.66 105.5 M576.05 104.65 C461.43 105.87, 345.96 105.17, -0.27 104.22 M576.39 105.04 C386.31 106.16, 196.98 105.56, 0.32 104.96 M1.87 106.43 C-0.7 74.75, 1.77 40.87, 0.41 -1.92 M0.33 105.3 C-0.04 69.63, -0.9 34.75, 0.33 -0.06" stroke="#000000" stroke-width="1" fill="none"></path></g><g transform="translate(61 901.5) rotate(0 252 24)"><text x="0" y="19" font-family="Cascadia, Segoe UI Emoji" font-size="20px" fill="#000000" text-anchor="start" style="white-space: pre;" direction="ltr">After completion of iteration we then send </text><text x="0" y="43" font-family="Cascadia, Segoe UI Emoji" font-size="20px" fill="#000000" text-anchor="start" style="white-space: pre;" direction="ltr">decodedLogData as response </text></g></svg>